<?xml version="1.0" encoding="UTF-8" standalone="no"?>
<svg xmlns:dc="http://purl.org/dc/elements/1.1/" xmlns:cc="http://creativecommons.org/ns#" xmlns:rdf="http://www.w3.org/1999/02/22-rdf-syntax-ns#" xmlns:svg="http://www.w3.org/2000/svg" xmlns="http://www.w3.org/2000/svg" xmlns:sodipodi="http://sodipodi.sourceforge.net/DTD/sodipodi-0.dtd" xmlns:inkscape="http://www.inkscape.org/namespaces/inkscape" width="32" height="32" viewBox="0 0 32 32.000001" id="svg3730" version="1.1" inkscape:version="0.91 r13725" sodipodi:docname="drawing.svg">
  <defs id="defs3732"/>
  <sodipodi:namedview id="base" pagecolor="#ffffff" bordercolor="#666666" borderopacity="1.0" inkscape:pageopacity="0.0" inkscape:pageshadow="2" inkscape:zoom="3.959798" inkscape:cx="18.512291" inkscape:cy="4.1108035" inkscape:document-units="px" inkscape:current-layer="layer1" showgrid="true" units="px" inkscape:snap-bbox="true" inkscape:bbox-paths="true" inkscape:bbox-nodes="true" inkscape:snap-bbox-edge-midpoints="true" inkscape:snap-bbox-midpoints="true" inkscape:window-width="1366" inkscape:window-height="705" inkscape:window-x="-8" inkscape:window-y="-8" inkscape:window-maximized="1">
    <inkscape:grid type="xygrid" id="grid3738"/>
  </sodipodi:namedview>
  
  <g inkscape:label="Layer 1" inkscape:groupmode="layer" id="layer1" transform="translate(0,-1020.3622)">
    <g id="g3773">
      <path id="path3876" d="m 26.424997,1036.8168 a 10.925,10.925 0 0 1 -10.925,10.925 10.925,10.925 0 0 1 -10.9250001,-10.925 10.925,10.925 0 0 1 10.9250001,-10.925 10.925,10.925 0 0 1 10.925,10.925 z" style="fill:#fe0505;fill-opacity:1;stroke:#000000;stroke-width:1"/>
      <path sodipodi:nodetypes="cccccc" inkscape:connector-curvature="0" id="path3809" d="m 26.24485,1037.5302 c -1.02406,0.7434 -1.98344,1.2475 -3.28183,1.7567 -4.73804,1.8393 -10.56488,1.8166 -15.27145,-0.06 -1.12935,-0.4544 -2.12044,-0.9904 -3.04115,-1.6256 0.3865,5.7529 5.11842,10.2063 10.88426,10.2069 6.49144,-0.2561 10.31973,-5.3616 10.71017,-10.2785 z" style="fill:#ffffff;fill-opacity:1;fill-rule:evenodd;stroke:#000000;stroke-width:1;stroke-linecap:butt;stroke-linejoin:miter;stroke-miterlimit:4;stroke-dasharray:none;stroke-opacity:1"/>
      <path sodipodi:nodetypes="ccccccccccccccccccc" inkscape:connector-curvature="0" id="path3880" d="m 26.19604,1036.3388 -0.50781,0.4063 c -0.94026,0.6822 -1.83036,1.116 -3.08789,1.6094 -4.4763,1.7376 -10.09033,1.7157 -14.53516,-0.055 l -0.004,-0 c -0.93289,-0.3757 -1.79541,-0.8201 -2.56836,-1.3204 -0.0197,-0.013 -0.1654,-0.1319 -0.35352,-0.2617 l -0.84197,1.4311 c 0.0393,0.027 -0.10523,0.3713 0.10955,0.5103 0.88994,0.5759 1.86688,1.0775 2.91211,1.4981 l 0.002,0 c 4.9677,1.9801 11.00544,2.0028 16.00391,0.062 l 0.002,0 0.002,0 c 1.33679,-0.5247 2.43076,-1.0527 3.53711,-1.8558 l -0.0376,-0.1795 -0.12835,-0.8499 -0.50391,-0.9941 z" style="color:#000000;font-style:normal;font-variant:normal;font-weight:normal;font-stretch:normal;font-size:medium;line-height:normal;font-family:sans-serif;text-indent:0;text-align:start;text-decoration:none;text-decoration-line:none;text-decoration-style:solid;text-decoration-color:#000000;letter-spacing:normal;word-spacing:normal;text-transform:none;direction:ltr;block-progression:tb;writing-mode:lr-tb;baseline-shift:baseline;text-anchor:start;white-space:normal;clip-rule:nonzero;display:inline;overflow:visible;visibility:visible;opacity:1;isolation:auto;mix-blend-mode:normal;color-interpolation:sRGB;color-interpolation-filters:linearRGB;solid-color:#000000;solid-opacity:1;fill:#000000;fill-opacity:1;fill-rule:evenodd;stroke:none;stroke-width:1;stroke-linecap:butt;stroke-linejoin:miter;stroke-miterlimit:4;stroke-dasharray:none;stroke-dashoffset:0;stroke-opacity:1;color-rendering:auto;image-rendering:auto;shape-rendering:auto;text-rendering:auto;enable-background:accumulate"/>
      <path id="path3878" d="m 17.975849,1040.0526 a 2.4000001,2.4000001 0 0 1 -2.4,2.4 2.4000001,2.4000001 0 0 1 -2.400001,-2.4 2.4000001,2.4000001 0 0 1 2.400001,-2.4 2.4000001,2.4000001 0 0 1 2.4,2.4 z" style="fill:#ffffff;fill-opacity:1;stroke:#000000;stroke-width:1"/>
    </g>
  </g>

	<metadata>
		<rdf:RDF xmlns:rdf="http://www.w3.org/1999/02/22-rdf-syntax-ns#" xmlns:rdfs="http://www.w3.org/2000/01/rdf-schema#" xmlns:dc="http://purl.org/dc/elements/1.1/">
			<rdf:Description about="https://iconscout.com/legal#licenses" dc:title="drawing" dc:description="drawing" dc:publisher="Iconscout" dc:date="2016-10-27" dc:format="image/svg+xml" dc:language="en">
				<dc:creator>
					<rdf:Bag>
						<rdf:li>Mohit Gandhi</rdf:li>
					</rdf:Bag>
				</dc:creator>
			</rdf:Description>
		</rdf:RDF>
    </metadata></svg>
