<svg id="SvgjsSvg1001" width="288" height="288" xmlns="http://www.w3.org/2000/svg" version="1.1" xmlns:xlink="http://www.w3.org/1999/xlink" xmlns:svgjs="http://svgjs.com/svgjs"><defs id="SvgjsDefs1002"></defs><g id="SvgjsG1008" transform="matrix(0.9167,0,0,0.9167,11.67721804924011,12.360989904785157)"><svg xmlns="http://www.w3.org/2000/svg" width="288" height="288" viewBox="0 0 32 32"><g transform="translate(0 -1020.362)" fill="#000000" class="color000 svgShape"><path fill="#ffffff" stroke="#000" d="m 26.424997,1036.8168 a 10.925,10.925 0 0 1 -10.925,10.925 10.925,10.925 0 0 1 -10.9250001,-10.925 10.925,10.925 0 0 1 10.9250001,-10.925 10.925,10.925 0 0 1 10.925,10.925 z" class="colorfe0505 svgShape colorStroke000 svgStroke"></path><path fill="#ffffff" fill-rule="evenodd" stroke="#000" d="m 26.24485,1037.5302 c -1.02406,0.7434 -1.98344,1.2475 -3.28183,1.7567 -4.73804,1.8393 -10.56488,1.8166 -15.27145,-0.06 -1.12935,-0.4544 -2.12044,-0.9904 -3.04115,-1.6256 0.3865,5.7529 5.11842,10.2063 10.88426,10.2069 6.49144,-0.2561 10.31973,-5.3616 10.71017,-10.2785 z" class="colorfff svgShape colorStroke000 svgStroke"></path><path fill-rule="evenodd" style="line-height:normal;text-indent:0;text-align:start;text-decoration-line:none;text-decoration-style:solid;text-decoration-color:#000;text-transform:none;block-progression:tb;white-space:normal;isolation:auto;mix-blend-mode:normal;solid-color:#000;solid-opacity:1" d="m 26.19604,1036.3388 -0.50781,0.4063 c -0.94026,0.6822 -1.83036,1.116 -3.08789,1.6094 -4.4763,1.7376 -10.09033,1.7157 -14.53516,-0.055 l -0.004,-0 c -0.93289,-0.3757 -1.79541,-0.8201 -2.56836,-1.3204 -0.0197,-0.013 -0.1654,-0.1319 -0.35352,-0.2617 l -0.84197,1.4311 c 0.0393,0.027 -0.10523,0.3713 0.10955,0.5103 0.88994,0.5759 1.86688,1.0775 2.91211,1.4981 l 0.002,0 c 4.9677,1.9801 11.00544,2.0028 16.00391,0.062 l 0.002,0 0.002,0 c 1.33679,-0.5247 2.43076,-1.0527 3.53711,-1.8558 l -0.0376,-0.1795 -0.12835,-0.8499 -0.50391,-0.9941 z" color="#000" enable-background="accumulate" font-family="sans-serif" font-weight="400" overflow="visible" fill="#000000" class="color000 svgShape"></path><path fill="#ffffff" stroke="#000" d="m 17.975849,1040.0526 a 2.4000001,2.4000001 0 0 1 -2.4,2.4 2.4000001,2.4000001 0 0 1 -2.400001,-2.4 2.4000001,2.4000001 0 0 1 2.400001,-2.4 2.4000001,2.4000001 0 0 1 2.4,2.4 z" class="colorfff svgShape colorStroke000 svgStroke"></path></g></svg></g></svg>